<svg width="121" height="43" viewBox="0 0 121 43" fill="none" xmlns="http://www.w3.org/2000/svg">
<rect width="121" height="43" fill="#DFDFDF"/>
<g id="Homepage | Desktop">
<rect width="1440" height="8217" transform="translate(-652 -89.9997)" fill="#FCF5EF"/>
<path id="Union" d="M2.71883 1.27571C3.21211 1.25135 3.62044 1.26358 3.9493 1.30012L6.82333 1.41633C6.92686 2.50653 7.08598 4.16964 7.29305 6.39875C7.5001 8.57887 7.65827 10.211 7.7618 11.3011L10.7335 9.93684C12.183 9.3217 13.1826 9.00515 13.7247 8.98078C14.2182 8.95656 15.2112 9.18823 16.7091 9.66926C20.9965 11.2833 23.7495 15.3697 24.9737 21.9349C25.193 23.1285 25.3266 24.2433 25.3692 25.2786C25.558 29.481 24.2365 32.8796 21.3985 35.4681C19.9796 36.7896 18.4265 37.4906 16.7335 37.5638C16.4046 37.576 15.4722 37.5632 13.9434 37.5267C12.1895 37.4962 11.2086 37.4842 10.9893 37.4964C10.0639 37.5391 9.4671 37.7035 9.20516 37.9896C8.99808 38.2149 8.85758 38.7151 8.7784 39.4886C8.71135 40.4202 8.4372 41.0352 7.95614 41.3275C7.52958 41.6198 6.42699 41.9431 4.6368 42.2962C3.38843 42.5702 2.19475 42.7348 1.04989 42.7835C0.61155 42.8018 0.367727 42.7834 0.306724 42.7347C0.251909 42.6799 0.197014 42.1616 0.15438 41.181C0.00212998 37.484 -0.0400243 30.4558 0.0391461 20.1146C0.11831 9.71362 0.276516 4.04922 0.507896 3.10383C0.696692 2.44 0.921802 1.9886 1.18368 1.75715C1.50038 1.4709 2.01233 1.31225 2.71883 1.27571ZM116.143 10.8382C117.087 10.759 117.708 10.863 117.994 11.1614C118.286 11.4539 118.585 12.1967 118.896 13.39C119.371 15.2598 119.864 19.2435 120.382 25.3402C120.9 31.4366 121.082 35.5296 120.966 37.9232L120.71 41.5228L110.85 42.3568L110.46 32.0579C110.149 23.343 110.028 17.8431 110.101 15.5589C110.174 13.2751 110.57 11.9952 111.288 11.721V11.7279C111.903 11.466 113.256 11.1918 115.351 10.9056L116.143 10.8382ZM100.935 11.0091C101.885 11.0091 102.494 11.167 102.756 11.4837C103.018 11.8004 103.255 12.5679 103.468 13.7796C103.785 15.6798 103.943 19.6939 103.943 25.8148C103.943 31.9355 103.785 36.0283 103.468 38.4036L102.914 41.9671H93.0167L93.4923 31.6741C93.9125 22.9649 94.2597 17.4772 94.5216 15.2054C94.7835 12.9337 95.2885 11.6969 96.0255 11.4837C96.6589 11.2705 98.0293 11.1126 100.143 11.0091H100.935ZM74.3194 8.9261C75.9271 8.3233 77.8392 8.24358 80.0557 8.68196C82.1752 9.10219 83.9906 9.90031 85.5011 11.0697C87.0907 12.3608 87.8213 13.3235 87.6934 13.9691C87.5958 14.4624 87.0174 15.1687 85.964 16.0882C84.7399 17.0748 83.7595 17.495 83.0225 17.3489C82.6754 17.282 82.1756 17.1059 81.5118 16.8197C80.7446 16.5639 80.233 16.4114 79.9893 16.3626C78.9541 16.1556 77.9491 16.3136 76.9747 16.8372C75.0257 17.8848 73.6733 20.3094 72.9181 24.1038C72.3091 27.1608 72.5466 29.2071 73.6182 30.2425C73.9228 30.5105 74.3251 30.6939 74.8184 30.7913C75.6589 30.9557 77.1022 30.9125 79.1544 30.6507C82.0047 30.2426 83.6012 30.072 83.9483 30.139C84.1919 30.1884 84.4595 31.4436 84.7335 33.9095C85.0684 36.3332 85.1601 37.9409 85.0079 38.7327L84.9776 38.8792L84.8741 39.013C84.4782 39.4454 83.3087 39.9331 81.3536 40.4691C78.4242 41.273 75.7323 41.425 73.2657 40.9378C69.5201 40.1948 66.6751 38.2459 64.7384 35.0911C62.8503 31.9484 62.3393 28.2081 63.2042 23.8655C64.7817 15.9238 68.4907 10.9481 74.3253 8.9261H74.3194ZM43.9698 10.1009C45.8518 9.86337 47.673 10.1382 49.421 10.93C51.6744 11.9227 53.1723 13.0374 53.9093 14.2738C54.701 15.504 55.2919 17.6657 55.6817 20.7532C56.1446 24.4197 56.9118 28.1782 57.9776 32.0335C58.6902 34.7133 59.1046 36.5466 59.2325 37.5394C59.2873 37.9595 59.2878 38.1972 59.2452 38.2581C59.105 38.4348 57.4603 38.8794 54.3057 39.598C52.1318 40.0851 50.9926 40.3347 50.8888 40.347C50.3102 40.4201 49.9384 40.3894 49.7618 40.2493C49.5792 40.0605 49.4516 39.7007 49.3907 39.1771C49.0984 36.8753 48.483 35.7791 47.5391 35.9007C47.119 35.9555 46.4672 36.2478 45.5782 36.7835C44.0921 37.6606 42.5626 38.2029 40.9913 38.3978C38.1107 38.7631 35.5467 38.0204 33.2872 36.1751C31.0764 34.2749 29.7786 31.7777 29.3888 28.6839C29.1208 26.5341 29.3768 24.3473 30.1563 22.1243C31.545 17.9584 34.3472 14.6263 38.5557 12.1292L38.5616 12.1419C40.2852 11.0213 42.0878 10.3384 43.9698 10.1009ZM113.64 0.00910381C114.48 -0.0638248 115.229 0.301762 115.874 1.09309C116.575 1.83004 116.977 2.87799 117.093 4.24836C117.178 5.24695 117.081 5.99601 116.807 6.49543C116.581 6.98876 116.093 7.45851 115.332 7.89094C114.729 8.26217 114.139 8.46912 113.561 8.51789C112.665 8.59098 111.904 8.34082 111.271 7.75617C110.686 7.11672 110.357 6.32534 110.277 5.37531C110.186 4.27297 110.411 3.19457 110.959 2.14094C111.696 0.807115 112.586 0.0943711 113.64 0.00910381ZM99.3507 0.00324444C100.197 0.00324444 100.91 0.423506 101.488 1.26985C102.122 2.06154 102.438 3.14576 102.439 4.51594C102.439 5.52088 102.281 6.25865 101.964 6.73371C101.702 7.20866 101.172 7.62886 100.38 8.00031C99.7468 8.31683 99.138 8.47485 98.5597 8.47492C97.6643 8.47492 96.9205 8.15814 96.3419 7.52473C95.8122 6.83659 95.5509 6.02055 95.5509 5.07063C95.5509 3.96215 95.8676 2.90857 96.5011 1.90364C97.3475 0.637011 98.2972 0.00337329 99.3507 0.00324444Z" fill="#FF835D"/>
</g>
</svg>
