<svg width="63" height="62" viewBox="0 0 63 62" fill="none" xmlns="http://www.w3.org/2000/svg"><path id="Union" d="M13.024 32.9971C13.9877 32.9973 14.7589 33.9775 14.9253 35.1641C15.758 41.1735 23.4159 47.3247 31.5035 47.2705C38.6624 47.2161 45.708 41.1737 46.5406 35.1641C46.7071 33.9774 47.4781 32.9971 48.4419 32.9971H61.2964C62.2603 32.9971 63.0492 33.9772 63.0054 35.1748C61.2704 51.9191 47.092 61.9673 31.5035 62C14.662 62.0325 0.686009 51.0698 0.00248406 35.1748C-0.0500913 33.9772 0.738825 32.9971 1.71147 32.9971H13.024ZM17.3208 0C19.174 0.000144537 20.734 0.920284 22.0005 2.77344C23.3871 4.50672 24.0806 6.88005 24.0806 9.87988C24.0806 12.0798 23.7339 13.6934 23.0406 14.7334C22.4672 15.7733 21.3069 16.6926 19.5738 17.5059C18.1873 18.1991 16.854 18.5458 15.5874 18.5459C13.6276 18.5459 12.0005 17.8533 10.7339 16.4668C9.57395 14.9602 9.00053 13.1727 9.00053 11.0928C9.0006 8.66633 9.69409 6.35997 11.0806 4.16016C12.9339 1.38687 15.0142 0 17.3208 0ZM48.7339 5.77441L55.1431 5.80176C57.403 5.81143 59.2269 7.65119 59.2173 9.91113C59.2078 12.1191 57.4489 13.9217 55.2417 13.9844L49.6988 14.1416L42.1695 13.9072C39.9596 13.8384 38.206 12.0215 38.2154 9.81055C38.225 7.55691 40.0603 5.73756 42.314 5.74707L48.7339 5.77441Z" fill="#FF835D"/></svg>
