<svg width="105" height="58" viewBox="0 0 105 58" fill="none" xmlns="http://www.w3.org/2000/svg"><path id="Cloud" d="M17.9385 20.2843C17.7168 19.2446 17.601 18.1718 17.601 17.0748C17.601 7.64465 26.1607 0 36.7198 0C43.1803 0 48.8926 2.86193 52.3532 7.24377C55.6757 4.75265 59.961 3.25234 64.6386 3.25234C75.0962 3.25234 83.5928 10.7509 83.7548 20.0559H83.7572C95.4894 20.0559 105 28.5499 105 39.028C105 49.506 95.4894 58 83.7572 58H21.2426C9.51075 58 0 49.506 0 39.028C0 29.5537 7.77563 21.702 17.9385 20.2843Z" fill="#C9BCF4"/></svg>
