<svg width="82" height="62" viewBox="0 0 82 62" fill="none" xmlns="http://www.w3.org/2000/svg"><path id="Subtract" d="M41 62L0 18.5996L19.4062 0H62.5938L82 18.5996L41 62ZM57.6084 26.9404C58.13 26.8785 58.13 26.1215 57.6084 26.0596L53.2334 25.541C47.584 24.8706 43.1294 20.416 42.459 14.7666L41.9404 10.3916C41.8785 9.87007 41.1215 9.87007 41.0596 10.3916L40.541 14.7666C39.8706 20.416 35.416 24.8706 29.7666 25.541L25.3916 26.0596C24.8701 26.1215 24.8701 26.8785 25.3916 26.9404L29.7666 27.459C35.416 28.1294 39.8706 32.584 40.541 38.2334L41.0596 42.6084C41.1215 43.13 41.8785 43.13 41.9404 42.6084L42.459 38.2334C43.1294 32.584 47.584 28.1294 53.2334 27.459L57.6084 26.9404Z" fill="#7BD8B3"/></svg>
